<svg width="367" height="74" viewBox="0 0 367 74" fill="none" xmlns="http://www.w3.org/2000/svg">
<path d="M24.7969 70.874C24.7969 71.374 24.7969 71.874 24.7969 72.374C28.6654 72.5407 32.5339 72.6907 36.4024 72.824C42.6693 73.04 48.9362 73.2122 55.2031 73.3408C56.8339 73.3683 58.4745 72.9512 59.9023 72.1434C61.3371 71.3361 62.5533 70.139 63.3898 68.7131C66.7057 63.0544 69.976 57.3794 73.2046 51.6808C75.0437 48.4349 76.8812 45.1882 78.7172 41.9407C79.5502 40.4864 79.9938 38.8056 79.9905 37.124C79.9905 35.4424 79.5435 33.7633 78.7041 32.3046C73.6266 23.3758 68.5333 14.4459 63.4287 5.52237C62.5967 4.0763 61.3854 2.8595 59.9461 2.02937C58.514 1.19903 56.8595 0.756271 55.205 0.762883C45.0677 0.8114 34.9323 0.872629 24.7969 0.94657C23.173 0.956016 21.5596 1.4059 20.1706 2.2296C18.7746 3.05321 17.6083 4.2496 16.8185 5.65417C11.8184 14.6451 6.83321 23.6363 1.85939 32.634C1.09345 33.9971 0.694572 35.5637 0.710643 37.124C0.723555 38.6844 1.15126 40.2353 1.93771 41.576C6.49376 49.4121 11.0614 57.248 15.6379 65.0788C16.249 66.1245 16.8602 67.17 17.4717 68.2155C18.2236 69.4956 19.3115 70.5673 20.5943 71.2916C21.8709 72.0163 23.3373 72.3933 24.7961 72.374C24.7966 71.874 24.7971 71.374 24.7977 70.874C23.6028 70.855 22.4209 70.5125 21.4067 69.8982C20.3874 69.2838 19.5397 68.3979 18.9695 67.3625C18.3889 66.304 17.8062 65.2422 17.2233 64.1805C12.8584 56.2298 8.48454 48.2841 4.10186 40.3435C3.55429 39.3592 3.27369 38.2383 3.28936 37.124C3.30268 36.0096 3.6121 34.9043 4.17452 33.9525C9.33904 25.0561 14.4893 16.1584 19.6281 7.25425C20.155 6.35281 20.9243 5.59173 21.8304 5.07659C22.7321 4.56126 23.7672 4.29163 24.7986 4.30141C34.9323 4.37536 45.0677 4.43659 55.2031 4.4851C56.2003 4.49138 57.1943 4.76813 58.0529 5.27682C58.9157 5.78545 59.64 6.52611 60.1324 7.39959C65.159 16.3577 70.2012 25.3166 75.2547 34.2691C75.751 35.1381 76.0123 36.1309 76.0095 37.124C76.0089 38.1171 75.7443 39.1081 75.2503 39.9663C73.404 43.2181 71.5634 46.4631 69.7244 49.709C66.4957 55.4076 63.3086 61.1297 60.1631 66.8754C59.6834 67.7546 58.964 68.5149 58.0967 69.0463C57.2338 69.5776 56.226 69.88 55.2013 69.9072C48.9362 70.0357 42.6693 70.208 36.4024 70.424C32.5339 70.5573 28.6654 70.7073 24.7969 70.874ZM24.7969 72.374V70.874L24.7961 72.374L24.7969 72.374Z" fill="#FE5A16"/>
<path d="M36.344 43.528C36.344 40.3573 35.0293 38.772 32.4 38.772H29.268C23.3133 38.772 20.336 35.9107 20.336 30.188V20.444C20.336 14.644 23.3133 11.744 29.268 11.744H32.168C33.56 11.744 34.4493 11.2413 34.836 10.236C35.2227 9.15333 35.532 8.032 35.764 6.872C35.996 5.712 36.344 4.62933 36.808 3.624C37.3493 2.54133 38.4707 2 40.172 2C41.796 2 42.8013 2.54133 43.188 3.624C43.652 4.62933 44.0387 5.712 44.348 6.872C44.6573 8.032 45.0827 9.15333 45.624 10.236C46.2427 11.2413 47.596 11.744 49.684 11.744H54.672C57.6107 11.744 59.08 12.788 59.08 14.876C59.08 17.1187 57.6107 18.24 54.672 18.24H49.568C45.856 18.24 44 19.7093 44 22.648V27.752C44 30.9227 45.508 32.508 48.524 32.508H50.612C56.7213 32.508 59.776 35.3307 59.776 40.976V52.692C59.776 58.492 56.7213 61.392 50.612 61.392H48.988C47.132 61.392 45.9333 61.856 45.392 62.784C44.8507 63.7893 44.464 64.872 44.232 66.032C44 67.192 43.652 68.236 43.188 69.164C42.8013 70.092 41.796 70.556 40.172 70.556C39.0893 70.556 38.2773 70.324 37.736 69.86C37.272 69.396 36.8853 68.816 36.576 68.12C36.344 67.5013 36.1893 66.8053 36.112 66.032C36.0347 65.2587 35.8413 64.524 35.532 63.828C35.2227 63.132 34.7587 62.552 34.14 62.088C33.5987 61.624 32.7093 61.392 31.472 61.392H24.976C21.96 61.392 20.452 60.2707 20.452 58.028C20.452 55.8627 21.96 54.78 24.976 54.78H31.24C34.6427 54.78 36.344 52.692 36.344 48.516V43.528ZM32.4 17.428C29.7707 17.428 28.456 19.3227 28.456 23.112V28.332C28.456 31.6573 29.7707 33.32 32.4 33.32C35.0293 33.32 36.344 31.5027 36.344 27.868V22.88C36.344 19.2453 35.0293 17.428 32.4 17.428ZM47.828 38.656C45.276 38.656 44 40.7053 44 44.804V50.024C44 53.6587 45.276 55.476 47.828 55.476C50.38 55.476 51.656 53.5427 51.656 49.676V44.456C51.656 40.5893 50.38 38.656 47.828 38.656Z" fill="#FE5A16"/>
<path d="M97.552 21.104C99.792 21.104 100.912 22.768 100.912 26.096V29.264C100.912 32.656 102.768 34.352 106.48 34.352H108.304C110.864 34.352 112.144 34.896 112.144 35.984C112.144 37.136 110.864 37.712 108.304 37.712H106.48C102.768 37.712 100.912 39.952 100.912 44.432V54.992C100.912 58.768 102.736 60.656 106.384 60.656H108.688C111.184 60.656 112.432 61.264 112.432 62.48C112.432 63.696 111.28 64.304 108.976 64.304H101.008C96.336 64.304 94 61.968 94 57.296V25.616C94 22.608 95.184 21.104 97.552 21.104Z" fill="white"/>
<path d="M134.126 43.28C134.126 39.696 132.75 37.904 129.998 37.904H128.75C126.19 37.904 124.91 39.824 124.91 43.664V59.792C124.91 63.184 123.79 64.88 121.55 64.88C119.118 64.88 117.902 63.312 117.902 60.176V26.096C117.902 23.088 119.118 21.584 121.55 21.584C123.79 21.584 124.91 23.248 124.91 26.576V30.032C124.91 33.04 126.766 34.544 130.478 34.544H133.55C135.982 34.544 137.806 35.12 139.022 36.272C140.238 37.424 140.846 39.024 140.846 41.072V60.368C140.846 63.376 139.726 64.88 137.486 64.88C135.246 64.88 134.126 63.184 134.126 59.792V43.28Z" fill="white"/>
<path d="M159.756 61.04H169.452C171.884 61.04 173.1 61.616 173.1 62.768C173.1 63.792 171.948 64.304 169.644 64.304H157.644C152.652 64.304 150.156 61.968 150.156 57.296V36.08C150.156 31.472 152.716 29.168 157.836 29.168H165.804C168.172 29.168 169.964 29.68 171.18 30.704C172.46 31.664 173.1 33.072 173.1 34.928V45.968C173.1 48.336 172.46 50.032 171.18 51.056C169.964 52.08 168.172 52.592 165.804 52.592H159.948C158.028 52.592 157.068 54.032 157.068 56.912C157.068 59.664 157.964 61.04 159.756 61.04ZM157.068 37.232V44.432C157.068 47.632 158.636 49.232 161.772 49.232C164.716 49.232 166.188 47.632 166.188 44.432V37.232C166.188 34.032 164.716 32.432 161.772 32.432C158.636 32.432 157.068 34.032 157.068 37.232Z" fill="white"/>
<path d="M215.888 34.352H218.961C221.329 34.352 223.121 34.928 224.337 36.08C225.617 37.232 226.257 38.832 226.257 40.88V57.68C226.257 60.048 225.617 61.776 224.337 62.864C223.057 63.888 221.201 64.4 218.769 64.4H210.8C205.744 64.4 203.216 62.128 203.216 57.584V26.576C203.216 23.504 204.433 21.968 206.865 21.968C209.105 21.968 210.225 23.632 210.225 26.96L210.321 30.32C210.321 33.008 212.176 34.352 215.888 34.352ZM219.344 55.184V43.568C219.344 39.664 218.001 37.712 215.312 37.712H214.064C211.568 37.712 210.321 39.824 210.321 44.048L210.225 55.28C210.225 59.184 211.536 61.136 214.16 61.136H215.505C218.065 61.136 219.344 59.152 219.344 55.184Z" fill="white"/>
<path d="M262.479 14.384H253.775C248.655 14.384 246.095 17.072 246.095 22.448V27.312C246.095 32.432 248.612 34.992 253.647 34.992H262.735C267.77 34.992 270.287 31.8347 270.287 25.52V20.784C270.287 16.5173 267.684 14.384 262.479 14.384ZM270.287 57.392V46.128C270.287 41.9467 267.684 39.856 262.479 39.856H253.775C248.655 39.856 246.095 41.9467 246.095 46.128V57.52C246.095 61.9573 244.602 64.176 241.615 64.176C238.628 64.176 237.135 62.1707 237.135 58.16V18.608C237.135 12.464 240.25 9.39199 246.479 9.39199H268.623C275.706 9.39199 279.247 12.464 279.247 18.608V58.032C279.247 62.128 277.754 64.176 274.767 64.176C271.78 64.176 270.287 61.9147 270.287 57.392Z" fill="#FE5A16"/>
<path d="M297.517 64.56C294.616 64.56 293.165 62.4693 293.165 58.288L293.037 14.64C293.037 10.6293 294.488 8.62399 297.389 8.62399C300.376 8.62399 301.869 10.672 301.869 14.768L301.997 58.288C301.997 62.4693 300.504 64.56 297.517 64.56Z" fill="#FE5A16"/>
<path d="M330.032 43.184C330.032 39.6 328.688 37.808 326 37.808H324.752C322.192 37.808 320.912 39.728 320.912 43.568V59.6C320.912 62.992 319.792 64.688 317.552 64.688C315.12 64.688 313.904 63.216 313.904 60.272V41.072C313.904 39.024 314.512 37.392 315.728 36.176C317.008 34.96 318.928 34.352 321.488 34.352H329.648C332.016 34.352 333.808 34.96 335.024 36.176C336.304 37.328 336.944 38.928 336.944 40.976V60.08C336.944 63.152 335.76 64.688 333.392 64.688C331.152 64.688 330.032 62.992 330.032 59.6V43.184Z" fill="white"/>
<path d="M356.335 46.352L359.503 39.152C361.103 35.76 362.639 34.064 364.111 34.064C364.879 34.064 365.455 34.384 365.839 35.024C366.222 35.664 366.414 36.336 366.414 37.04C366.414 37.744 366.255 38.736 365.935 40.016L362.19 47.216C361.422 48.752 361.039 50.16 361.039 51.44C360.975 52.144 361.038 52.816 361.23 53.456C361.486 54.032 361.806 54.64 362.19 55.28L365.551 61.328C365.935 62.16 366.126 62.736 366.126 63.056C366.126 63.632 365.87 64.112 365.358 64.496C364.846 64.944 364.207 65.168 363.439 65.168C362.095 65.168 360.783 64.208 359.503 62.288L356.047 55.76C355.023 54.48 354.287 53.84 353.839 53.84C353.391 53.84 353.167 54.416 353.167 55.568V59.312C353.167 62.96 352.047 64.784 349.807 64.784C347.439 64.784 346.255 63.248 346.255 60.176V25.712C346.255 24.304 346.478 23.248 346.926 22.544C347.438 21.776 348.366 21.392 349.71 21.392C351.886 21.392 353.039 22.992 353.167 26.192V44.528C353.167 46.896 353.679 48.08 354.703 48.08C355.023 48.08 355.567 47.504 356.335 46.352Z" fill="white"/>
</svg>
